<svg width="51" height="51" viewBox="0 0 51 51" fill="none" xmlns="http://www.w3.org/2000/svg">
<g clip-path="url(#clip0_2_18141)">
<path d="M38.9455 33.1574C36.7145 32.7567 34.6907 33.855 33.7099 35.6163C33.2955 36.3554 32.4873 36.7836 31.6447 36.7836H31.396C30.505 36.7836 29.7176 36.2725 29.2617 35.5058C28.3983 34.0484 26.8166 33.0745 25 33.0745C23.1834 33.0745 21.6086 34.0484 20.7383 35.4989C20.2824 36.2656 19.495 36.7836 18.5971 36.7836H18.2655C17.4229 36.7836 16.6769 36.2932 16.2556 35.561C15.8204 34.8082 15.1919 34.1727 14.4321 33.7376C13.6999 33.3162 13.2095 32.5702 13.2095 31.7276V31.396C13.2095 30.4981 13.7207 29.7107 14.4943 29.2548C15.9447 28.3914 16.9187 26.8097 16.9187 24.9931C16.9187 23.1765 15.9447 21.6017 14.4943 20.7314C13.7276 20.2755 13.2095 19.4881 13.2095 18.5902V18.2587C13.2095 17.416 13.6999 16.67 14.4321 16.2487C15.185 15.8135 15.8204 15.185 16.2556 14.4252C16.6769 13.693 17.4229 13.2026 18.2655 13.2026H18.5971C19.495 13.2026 20.2824 13.7138 20.7383 14.4874C21.6017 15.9379 23.1834 16.9118 25 16.9118C26.8166 16.9118 28.3983 15.9379 29.2617 14.4805C29.7176 13.7138 30.4981 13.2026 31.396 13.2026H31.6447C32.4943 13.2026 33.2955 13.6309 33.7099 14.3699C34.6907 16.1313 36.7145 17.2295 38.9455 16.8289C40.9141 16.4766 42.5165 14.9087 42.8964 12.9471C43.518 9.76978 41.1005 6.98621 38.0338 6.98621C36.2172 6.98621 34.6355 7.96011 33.7721 9.41752C33.3162 10.1842 32.5357 10.6953 31.6378 10.6953H31.3891C30.4981 10.6953 29.7107 10.1842 29.2548 9.41752C28.3914 7.96011 26.8097 6.98621 24.9931 6.98621C23.1765 6.98621 21.6017 7.96011 20.7314 9.41061C20.2755 10.1773 19.4881 10.6953 18.5902 10.6953H18.3553C17.5058 10.6953 16.6976 10.2602 16.2763 9.52113C15.3024 7.78743 13.2924 6.6892 11.0683 7.076C9.05833 7.42826 7.42825 9.05835 7.07598 11.0683C6.68918 13.2924 7.78051 15.3024 9.53493 16.2901C10.274 16.7045 10.7091 17.5196 10.7091 18.3692V18.604C10.7091 19.5019 10.198 20.2894 9.42441 20.7452C7.97391 21.6017 7.00001 23.1834 7.00001 25C7.00001 26.8166 7.97391 28.3914 9.42441 29.2617C10.1911 29.7176 10.7091 30.505 10.7091 31.4029V31.6378C10.7091 32.4874 10.274 33.2955 9.53493 33.7168C7.78051 34.6976 6.68918 36.7076 7.07598 38.9386C7.42825 40.9486 9.05143 42.5718 11.0614 42.924C13.2855 43.3108 15.2955 42.2195 16.2763 40.4651C16.6907 39.726 17.5058 39.2909 18.3553 39.2909H18.5902C19.4881 39.2909 20.2755 39.802 20.7314 40.5756C21.5948 42.0261 23.1765 43 24.9931 43C26.8097 43 28.3914 42.0261 29.2548 40.5687C29.7107 39.802 30.4912 39.2909 31.3891 39.2909H31.6378C32.5288 39.2909 33.3162 39.802 33.7721 40.5687C34.6355 42.0261 36.2172 43 38.0338 43C41.1005 43 43.518 40.2164 42.8964 37.0392C42.5165 35.0775 40.9141 33.5096 38.9455 33.1574Z" fill="#00A9F4"/>
<path d="M26.9325 29.6872C29.5214 28.6206 30.7555 25.6573 29.689 23.0684C28.6224 20.4795 25.6591 19.2454 23.0702 20.3119C20.4813 21.3784 19.2471 24.3418 20.3137 26.9307C21.3802 29.5196 24.3436 30.7537 26.9325 29.6872Z" fill="black" fill-opacity="0.87"/>
<path d="M39.8554 29.6891C42.4443 28.6226 43.6784 25.6592 42.6119 23.0703C41.5453 20.4814 38.582 19.2473 35.9931 20.3138C33.4042 21.3804 32.1701 24.3437 33.2366 26.9326C34.3031 29.5215 37.2665 30.7557 39.8554 29.6891Z" fill="black" fill-opacity="0.87"/>
</g>
<defs>
<clipPath id="clip0_2_18141">
<rect width="36" height="36" fill="white" transform="translate(7 7)"/>
</clipPath>
</defs>
</svg>
