<svg width="51" height="51" viewBox="0 0 51 51" fill="none" xmlns="http://www.w3.org/2000/svg">
<path d="M20.7334 26.3054C20.5025 26.3382 20.2786 26.3447 20.0546 26.3316C19.9847 26.3316 19.9147 26.3185 19.8517 26.3119C19.7048 26.2988 19.5508 26.2791 19.4109 26.2463C19.3409 26.2332 19.2639 26.2135 19.1939 26.1938C19.047 26.1544 18.907 26.1019 18.7671 26.0495C18.6831 26.0166 18.5921 25.9838 18.5151 25.9445L24.7712 29.1336C24.8131 29.1533 24.8551 29.173 24.8971 29.1927C24.9391 29.2124 24.9811 29.2189 25.0231 29.2386C25.163 29.2977 25.303 29.3436 25.4499 29.383C25.4849 29.3961 25.5199 29.4092 25.5619 29.4224C25.5969 29.4289 25.6319 29.4289 25.6669 29.4355C25.8138 29.4683 25.9608 29.488 26.1077 29.5011C26.1777 29.5011 26.2407 29.5142 26.3107 29.5208C26.5346 29.5274 26.7585 29.5208 26.9895 29.4945L38.9627 27.9196L32.7066 24.7305L20.7334 26.3054Z" fill="black" fill-opacity="0.87"/>
<path d="M13.5529 27.0594C13.5529 26.5935 13.5809 26.1342 13.6229 25.6748C13.6369 25.5239 13.6719 25.373 13.6929 25.222C13.7349 24.9136 13.7698 24.6118 13.8328 24.3099C13.8678 24.1327 13.9238 23.9556 13.9658 23.7784C14.0288 23.5093 14.0847 23.2403 14.1687 22.9712C14.2247 22.7809 14.2947 22.5972 14.3577 22.4135C14.4416 22.1641 14.5186 21.9147 14.6166 21.6654C14.6516 21.5735 14.7005 21.4816 14.7355 21.3898C14.8615 21.0814 14.9945 20.7795 15.1414 20.4842C15.2114 20.3464 15.2814 20.2086 15.3583 20.0774C15.4983 19.8214 15.6382 19.5655 15.7852 19.3096C15.8482 19.2046 15.9112 19.1062 15.9741 19.0012C16.1631 18.7059 16.359 18.4106 16.562 18.1284C16.5969 18.0759 16.6389 18.0234 16.6739 17.9709C16.9188 17.6428 17.1708 17.3278 17.4367 17.0194C17.5067 16.9407 17.5696 16.8685 17.6396 16.7897C17.8705 16.5338 18.1085 16.2845 18.3534 16.0417C18.4094 15.9892 18.4584 15.9301 18.5143 15.8776C18.8082 15.5954 19.1091 15.333 19.4171 15.0705C19.501 14.9983 19.592 14.9327 19.676 14.867C19.9209 14.6702 20.1798 14.4799 20.4387 14.3027C20.5367 14.2371 20.6347 14.1649 20.7326 14.0993C20.9706 13.9418 21.2085 13.7974 21.4534 13.6531C21.5934 13.5678 21.7333 13.4824 21.8803 13.3971C22.1602 13.2396 22.4471 13.1018 22.741 12.964C22.846 12.9115 22.9509 12.859 23.0629 12.8066C23.4408 12.6425 23.8187 12.4916 24.2105 12.3603C24.3155 12.321 24.4205 12.2947 24.5324 12.2553C24.8333 12.1569 25.1342 12.0716 25.4421 11.9929C25.5611 11.9666 25.6731 11.9338 25.792 11.9075C26.1979 11.8157 26.6108 11.7369 27.0236 11.6844L38.9969 10.1095L32.7408 6.90723L20.7676 8.48213C20.3548 8.53463 19.9419 8.61337 19.536 8.70524C19.4171 8.73149 19.3051 8.7643 19.1861 8.79055C18.8782 8.86929 18.5773 8.9546 18.2764 9.05303C18.1714 9.08584 18.0595 9.11865 17.9545 9.15803C17.5836 9.28927 17.2127 9.42707 16.8489 9.58456C16.8349 9.58456 16.8209 9.59769 16.8069 9.60425C16.7019 9.65018 16.5969 9.70924 16.485 9.76174C16.1981 9.89954 15.9042 10.0373 15.6243 10.1948C15.4773 10.2736 15.3373 10.3655 15.1974 10.4508C15.0154 10.5558 14.8335 10.6542 14.6586 10.7723C14.5956 10.8117 14.5396 10.8576 14.4766 10.897C14.3786 10.9626 14.2807 11.0348 14.1827 11.1004C13.9238 11.2841 13.6719 11.4679 13.42 11.6647C13.336 11.7304 13.245 11.8025 13.161 11.8682C13.119 11.901 13.0701 11.9338 13.0281 11.9732C12.7622 12.1963 12.5032 12.4325 12.2513 12.6753C12.1953 12.7278 12.1464 12.7869 12.0904 12.8394C11.9434 12.9837 11.7965 13.1281 11.6495 13.279C11.5515 13.3775 11.4676 13.489 11.3696 13.594C11.2996 13.6727 11.2296 13.7449 11.1667 13.8237C10.9147 14.119 10.6698 14.4143 10.4389 14.7227C10.4249 14.7358 10.4179 14.7555 10.4039 14.7686C10.3619 14.8211 10.3269 14.8736 10.2919 14.9261C10.089 15.2083 9.88607 15.5036 9.70413 15.7989C9.64115 15.8973 9.57817 16.0023 9.51519 16.1073C9.45921 16.1992 9.39622 16.291 9.34724 16.3829C9.25627 16.5404 9.17929 16.711 9.08832 16.8685C9.01834 17.0063 8.94137 17.1375 8.87139 17.2753C8.72444 17.5706 8.59148 17.8791 8.46552 18.1809C8.42353 18.2728 8.38155 18.3646 8.34656 18.4565C8.34656 18.4696 8.33256 18.4893 8.32556 18.5024C8.23459 18.7321 8.16461 18.9684 8.08764 19.2046C8.02466 19.3883 7.95468 19.5721 7.8987 19.7624C7.82172 20.0249 7.76574 20.2939 7.70276 20.5629C7.66077 20.7401 7.60479 20.9173 7.5698 21.101C7.51382 21.3963 7.47883 21.6982 7.43685 21.9935C7.41585 22.151 7.38086 22.3085 7.36687 22.466C7.32488 22.9384 7.29689 23.3978 7.29689 23.8637C7.28989 28.6999 9.7811 32.6241 13.5389 34.5402L19.7949 37.7294C16.0371 35.8133 13.5389 31.8891 13.5529 27.0529V27.0594Z" fill="black" fill-opacity="0.87"/>
<path d="M38.9974 10.0963L38.9765 19.4933L27.0032 21.0682C24.715 21.37 22.8396 23.5093 22.8326 25.8257C22.8326 28.1487 24.694 29.7892 26.9822 29.4873L38.9555 27.9124L38.9345 37.3094L26.9613 38.8843C19.5436 39.862 13.5255 34.5533 13.5465 27.0462C13.5605 19.5392 19.5996 12.6424 27.0172 11.6647L38.9904 10.0898L38.9974 10.0963Z" fill="#00A9F4"/>
</svg>
